<svg width="64" height="64" viewBox="0 0 64 64" fill="none" xmlns="http://www.w3.org/2000/svg" role="img" aria-label="DigitalFoldr icon">
  <rect x="4" y="4" width="56" height="56" rx="14" fill="#302F2D"/>
  <path d="M14 23.8C14 20.6 16.6 18 19.8 18H29L33.8 23H47.8C51.2 23 54 25.8 54 29.2V44.2C54 47.6 51.2 50.4 47.8 50.4H20.2C16.8 50.4 14 47.6 14 44.2V23.8Z" fill="#F19B42"/>
  <path d="M18.2 31C18.2 28.6 20.1 26.7 22.5 26.7H48.1C50.5 26.7 52.4 28.6 52.4 31V45.6C52.4 48 50.5 49.9 48.1 49.9H22.5C20.1 49.9 18.2 48 18.2 45.6V31Z" fill="#FFE8C8"/>
  <path d="M24.4 18.8C24.4 16.4 26.3 14.5 28.7 14.5H41.2L48.6 21.9V42.5C48.6 44.9 46.7 46.8 44.3 46.8H28.7C26.3 46.8 24.4 44.9 24.4 42.5V18.8Z" fill="#FFFFFF"/>
  <path d="M41.2 14.5V21.9H48.6L41.2 14.5Z" fill="#F19B42"/>
  <path d="M31.1 29.2H42.2" stroke="#536648" stroke-width="3" stroke-linecap="round"/>
  <path d="M31.1 36.2H40.1" stroke="#536648" stroke-width="3" stroke-linecap="round"/>
  <path d="M24.4 28.3C24.4 28.3 28.8 26.7 33.6 26.7H48.1C50.5 26.7 52.4 28.6 52.4 31V45.6C52.4 48 50.5 49.9 48.1 49.9H22.5C20.1 49.9 18.2 48 18.2 45.6V36.5C18.2 32.3 21.3 29.5 24.4 28.3Z" fill="#F19B42" fill-opacity="0.18"/>
</svg>
